<svg width="256" height="256" viewBox="0 0 256 256" fill="none" xmlns="http://www.w3.org/2000/svg">
<path d="M223.68 66.15L135.68 18C133.329 16.7008 130.686 16.0194 128 16.0194C125.314 16.0194 122.671 16.7008 120.32 18L32.32 66.17C29.8069 67.545 27.709 69.5696 26.2455 72.0322C24.782 74.4949 24.0065 77.3053 24 80.17V175.81C24.0065 178.675 24.782 181.485 26.2455 183.948C27.709 186.41 29.8069 188.435 32.32 189.81L120.32 237.98C122.671 239.279 125.314 239.961 128 239.961C130.686 239.961 133.329 239.279 135.68 237.98L223.68 189.81C226.193 188.435 228.291 186.41 229.754 183.948C231.218 181.485 231.993 178.675 232 175.81V80.18C231.999 77.3102 231.226 74.4936 229.762 72.0252C228.298 69.5568 226.198 67.5275 223.68 66.15ZM128 32L208.34 76L178.57 92.3L98.22 48.3L128 32ZM128 120L47.66 76L81.56 57.44L161.9 101.44L128 120ZM40 90L120 133.78V219.57L40 175.82V90ZM216 175.78L136 219.57V133.82L168 116.31V152C168 154.122 168.843 156.157 170.343 157.657C171.843 159.157 173.878 160 176 160C178.122 160 180.157 159.157 181.657 157.657C183.157 156.157 184 154.122 184 152V107.55L216 90V175.77V175.78Z" fill="black"/>
</svg>
