<svg width="15" height="15" viewBox="0 0 15 15" fill="none" xmlns="http://www.w3.org/2000/svg">
<g clip-path="url(#clip0_118_6)">
<path d="M2 12.5V13H3V12.5H2ZM7 12.5V13H8V12.5H7ZM3 12.5V12H2V12.5H3ZM7 12V12.5H8V12H7ZM5 10C5.53043 10 6.03914 10.2107 6.41421 10.5858C6.78929 10.9609 7 11.4696 7 12H8C8 11.2044 7.68393 10.4413 7.12132 9.87868C6.55871 9.31607 5.79565 9 5 9V10ZM3 12C3 11.4696 3.21071 10.9609 3.58579 10.5858C3.96086 10.2107 4.46957 10 5 10V9C4.20435 9 3.44129 9.31607 2.87868 9.87868C2.31607 10.4413 2 11.2044 2 12H3ZM5 4C4.46957 4 3.96086 4.21071 3.58579 4.58579C3.21071 4.96086 3 5.46957 3 6H4C4 5.73478 4.10536 5.48043 4.29289 5.29289C4.48043 5.10536 4.73478 5 5 5V4ZM7 6C7 5.46957 6.78929 4.96086 6.41421 4.58579C6.03914 4.21071 5.53043 4 5 4V5C5.26522 5 5.51957 5.10536 5.70711 5.29289C5.89464 5.48043 6 5.73478 6 6H7ZM5 8C5.53043 8 6.03914 7.78929 6.41421 7.41421C6.78929 7.03914 7 6.53043 7 6H6C6 6.26522 5.89464 6.51957 5.70711 6.70711C5.51957 6.89464 5.26522 7 5 7V8ZM5 7C4.73478 7 4.48043 6.89464 4.29289 6.70711C4.10536 6.51957 4 6.26522 4 6H3C3 6.53043 3.21071 7.03914 3.58579 7.41421C3.96086 7.78929 4.46957 8 5 8V7ZM1.5 3H13.5V2H1.5V3ZM14 3.5V11.5H15V3.5H14ZM13.5 12H1.5V13H13.5V12ZM1 11.5V3.5H0V11.5H1ZM1.5 12C1.36739 12 1.24021 11.9473 1.14645 11.8536C1.05268 11.7598 1 11.6326 1 11.5H0C0 11.8978 0.158035 12.2794 0.43934 12.5607C0.720644 12.842 1.10218 13 1.5 13V12ZM14 11.5C14 11.6326 13.9473 11.7598 13.8536 11.8536C13.7598 11.9473 13.6326 12 13.5 12V13C13.8978 13 14.2794 12.842 14.5607 12.5607C14.842 12.2794 15 11.8978 15 11.5H14ZM13.5 3C13.6326 3 13.7598 3.05268 13.8536 3.14645C13.9473 3.24021 14 3.36739 14 3.5H15C15 3.10218 14.842 2.72064 14.5607 2.43934C14.2794 2.15804 13.8978 2 13.5 2V3ZM1.5 2C1.10218 2 0.720644 2.15804 0.43934 2.43934C0.158035 2.72064 0 3.10218 0 3.5H1C1 3.36739 1.05268 3.24021 1.14645 3.14645C1.24021 3.05268 1.36739 3 1.5 3V2ZM9 6H12V5H9V6ZM9 9H12V8H9V9Z" fill="#334155"/>
</g>
<defs>
<clipPath id="clip0_118_6">
<rect width="15" height="15" fill="white"/>
</clipPath>
</defs>
</svg>
