<svg width="24" height="24" viewBox="0 0 24 24" fill="none" xmlns="http://www.w3.org/2000/svg">
<path d="M12 22.95C11.7167 22.95 11.479 22.8543 11.287 22.663C11.095 22.4717 10.9994 22.234 11 21.95V20.95C8.91672 20.7167 7.12905 19.8543 5.63705 18.363C4.14505 16.8717 3.28272 15.084 3.05005 13H2.05005C1.76672 13 1.52938 12.904 1.33805 12.712C1.14672 12.52 1.05072 12.2827 1.05005 12C1.05005 11.7167 1.14605 11.479 1.33805 11.287C1.53005 11.095 1.76738 10.9993 2.05005 11H3.05005C3.28338 8.91667 4.14605 7.129 5.63805 5.637C7.13005 4.145 8.91738 3.28267 11 3.05V2.05C11 1.76667 11.096 1.52933 11.288 1.338C11.48 1.14667 11.7174 1.05067 12 1.05C12.2834 1.05 12.521 1.146 12.713 1.338C12.905 1.53 13.0007 1.76733 13 2.05V3.05C15.0834 3.28333 16.8711 4.146 18.3631 5.638C19.8551 7.13 20.7174 8.91733 20.9501 11H21.9501C22.2334 11 22.471 11.096 22.663 11.288C22.855 11.48 22.9507 11.7173 22.9501 12C22.9501 12.2833 22.8544 12.521 22.663 12.713C22.4717 12.905 22.2341 13.0007 21.9501 13H20.9501C20.7167 15.0833 19.8544 16.871 18.3631 18.363C16.8717 19.855 15.084 20.7173 13 20.95V21.95C13 22.2333 12.904 22.471 12.712 22.663C12.52 22.855 12.2827 22.9507 12 22.95ZM12 19C13.9334 19 15.5834 18.3167 16.95 16.95C18.3167 15.5833 19 13.9333 19 12C19 10.0667 18.3167 8.41667 16.95 7.05C15.5834 5.68333 13.9334 5 12 5C10.0667 5 8.41672 5.68333 7.05005 7.05C5.68338 8.41667 5.00005 10.0667 5.00005 12C5.00005 13.9333 5.68338 15.5833 7.05005 16.95C8.41672 18.3167 10.0667 19 12 19ZM12 16C10.9 16 9.95838 15.6083 9.17505 14.825C8.39172 14.0417 8.00005 13.1 8.00005 12C8.00005 10.9 8.39172 9.95833 9.17505 9.175C9.95838 8.39167 10.9 8 12 8C13.1 8 14.0417 8.39167 14.825 9.175C15.6084 9.95833 16 10.9 16 12C16 13.1 15.6084 14.0417 14.825 14.825C14.0417 15.6083 13.1 16 12 16ZM12 14C12.55 14 13.021 13.8043 13.413 13.413C13.805 13.0217 14.0007 12.5507 14 12C14 11.45 13.804 10.979 13.412 10.587C13.02 10.195 12.5494 9.99933 12 10C11.45 10 10.979 10.196 10.587 10.588C10.195 10.98 9.99938 11.4507 10 12C10 12.55 10.196 13.021 10.588 13.413C10.98 13.805 11.4507 14.0007 12 14Z" fill="#334155"/>
</svg>
