<svg width="2048" height="2048" viewBox="0 0 2048 2048" fill="none" xmlns="http://www.w3.org/2000/svg">
<g clip-path="url(#clip0_615_546)">
<path d="M512 600C512 622.091 494.091 640 472 640H424C401.909 640 384 622.091 384 600V552C384 529.909 401.909 512 424 512H472C494.091 512 512 529.909 512 552V600ZM512 856C512 878.091 494.091 896 472 896H424C401.909 896 384 878.091 384 856V808C384 785.909 401.909 768 424 768H472C494.091 768 512 785.909 512 808V856ZM384 1064C384 1041.91 401.909 1024 424 1024H472C494.091 1024 512 1041.91 512 1064V1112C512 1134.09 494.091 1152 472 1152H424C401.909 1152 384 1134.09 384 1112V1064ZM256 1880C256 1902.09 273.909 1920 296 1920H1240C1262.09 1920 1280 1937.91 1280 1960V2008C1280 2030.09 1262.09 2048 1240 2048H168C145.909 2048 128 2030.09 128 2008V40C128 17.9086 145.909 0 168 0H1226.43C1237.04 0 1247.21 4.21427 1254.72 11.7157L1780.28 537.284C1787.79 544.786 1792 554.96 1792 565.569V1240C1792 1262.09 1774.09 1280 1752 1280H1704C1681.91 1280 1664 1262.09 1664 1240V680C1664 657.909 1646.09 640 1624 640H1192C1169.91 640 1152 622.091 1152 600V168C1152 145.909 1134.09 128 1112 128H296C273.909 128 256 145.909 256 168V1880ZM1280 512H1573L1280 219V512ZM1024 600C1024 622.091 1006.09 640 984 640H680C657.909 640 640 622.091 640 600V552C640 529.909 657.909 512 680 512H984C1006.09 512 1024 529.909 1024 552V600ZM1024 856C1024 878.091 1006.09 896 984 896H680C657.909 896 640 878.091 640 856V808C640 785.909 657.909 768 680 768H984C1006.09 768 1024 785.909 1024 808V856ZM640 1064C640 1041.91 657.909 1024 680 1024H984C1006.09 1024 1024 1041.91 1024 1064V1112C1024 1134.09 1006.09 1152 984 1152H680C657.909 1152 640 1134.09 640 1112V1064Z" fill="#3346F4"/>
<path d="M1859.37 1892.37C1811.8 1939.94 1747.28 1966.67 1680 1966.67C1612.72 1966.67 1548.2 1939.94 1500.63 1892.37C1453.06 1844.8 1426.33 1780.28 1426.33 1713C1426.33 1645.72 1453.06 1581.2 1500.63 1533.63C1548.2 1486.06 1612.72 1459.33 1680 1459.33C1747.28 1459.33 1811.8 1486.06 1859.37 1533.63C1906.94 1581.2 1933.67 1645.72 1933.67 1713C1933.67 1780.28 1906.94 1844.8 1859.37 1892.37ZM1805.65 1409.66C1765.81 1393.16 1723.12 1384.67 1680 1384.67C1592.92 1384.67 1509.41 1419.26 1447.83 1480.83C1386.26 1542.41 1351.67 1625.92 1351.67 1713C1351.67 1893.58 1498.42 2041.33 1680 2041.33C1767.08 2041.33 1850.59 2006.74 1912.17 1945.17C1973.74 1883.59 2008.33 1800.08 2008.33 1713C2008.33 1669.88 1999.84 1627.19 1983.34 1587.35C1966.84 1547.52 1942.65 1511.32 1912.17 1480.83C1881.68 1450.34 1845.48 1426.16 1805.65 1409.66ZM1701.17 1694.32V1575.58C1701.17 1559.43 1688.07 1546.33 1671.92 1546.33C1655.76 1546.33 1642.67 1559.43 1642.67 1575.58V1718.72C1642.67 1736.99 1652.25 1753.91 1667.91 1763.31L1795.06 1839.6C1808.37 1847.58 1825.62 1843.34 1833.69 1830.09C1841.88 1816.67 1837.52 1799.14 1824 1791.11L1721.73 1730.44C1708.98 1722.87 1701.17 1709.15 1701.17 1694.32Z" fill="#3346F4" stroke="#3346F4" stroke-width="10"/>
</g>
<defs>
<clipPath id="clip0_615_546">
<rect width="2048" height="2048" fill="white"/>
</clipPath>
</defs>
</svg>
