<svg width="24" height="24" viewBox="0 0 24 24" fill="none" xmlns="http://www.w3.org/2000/svg">
<path d="M21.0698 16.17C20.7298 15.24 18.6698 15.11 17.7098 12.98C17.6498 12.82 17.6598 12.71 17.8198 12.61C18.5598 12.12 19.0798 11.85 19.3798 11.28C19.5998 10.87 19.6298 10.39 19.4598 9.95C19.2298 9.34 18.6498 8.95 17.9398 8.95C17.6898 8.95 17.4898 9 17.3898 9.02C17.3998 8.6 17.3898 8.16 17.3498 7.72C17.2198 6.19 16.6798 5.38 16.1198 4.74C15.7898 4.37 14.4798 3 11.9998 3C9.51976 3 8.20976 4.37 7.87976 4.74C7.31976 5.38 6.77976 6.19 6.64976 7.72C6.61976 8.16 6.60976 8.6 6.60976 9.02C6.49976 8.99 6.30976 8.95 6.05976 8.95C5.35976 8.95 4.76976 9.33 4.53976 9.95C4.36976 10.38 4.39976 10.87 4.61976 11.28C4.92976 11.86 5.43976 12.12 6.17976 12.61C6.33976 12.72 6.34976 12.82 6.28976 12.98C5.31976 15.11 3.26976 15.24 2.92976 16.17C2.77976 16.57 2.87976 17.02 3.24976 17.4C3.81976 17.99 4.87976 18.17 5.08976 18.31C5.25976 18.45 5.23976 18.87 5.71976 19.21C6.09976 19.47 6.51976 19.49 6.96976 19.5C8.27976 19.55 8.56976 19.77 9.06976 20.08C9.69976 20.47 10.5598 21 11.9998 21C13.4398 21 14.2998 20.47 14.9298 20.08C15.4298 19.77 15.7198 19.55 17.0298 19.5C17.4798 19.48 17.8998 19.47 18.2798 19.21C18.7698 18.87 18.7498 18.45 18.9098 18.31C19.1198 18.17 20.1798 17.99 20.7498 17.4C21.1198 17.02 21.2198 16.57 21.0698 16.17ZM20.0398 16.7C19.6698 17.09 18.7798 17.2 18.3098 17.52C17.8298 17.94 17.9098 18.26 17.7198 18.39C17.5898 18.48 17.3598 18.49 16.9998 18.51C15.5998 18.56 15.0898 18.82 14.4798 19.2C13.0498 20.08 12.2498 20 11.9998 20C11.7498 20 10.9498 20.08 9.52976 19.19C8.91976 18.81 8.41976 18.56 7.00976 18.5C6.64976 18.49 6.41976 18.47 6.28976 18.38C6.09976 18.25 6.16976 17.93 5.69976 17.51C5.21976 17.19 4.33976 17.08 3.96976 16.69C3.90976 16.63 3.85976 16.55 3.84976 16.54C3.91976 16.44 4.25976 16.24 4.50976 16.1C5.28976 15.64 6.48976 14.96 7.21976 13.35C7.47976 12.65 7.24976 12.09 6.73976 11.76C5.58976 11.03 5.60976 11 5.49976 10.8C5.46026 10.7233 5.43719 10.6393 5.43202 10.5532C5.42686 10.4671 5.43971 10.3808 5.46976 10.3C5.58976 9.98 5.91976 9.95 6.04976 9.95C6.23976 9.95 6.22976 9.96 7.61976 10.32C7.59976 8.92 7.57976 8.47 7.63976 7.81C7.74976 6.5 8.20976 5.88 8.61976 5.41C8.89976 5.11 9.98976 3.98 11.9998 4C14.0098 3.98 15.0998 5.11 15.3698 5.41C15.7798 5.88 16.2398 6.5 16.3498 7.81C16.4098 8.47 16.3898 8.92 16.3698 10.32C17.7698 9.96 17.7498 9.95 17.9398 9.95C18.0798 9.95 18.3998 9.98 18.5198 10.3C18.5898 10.47 18.5798 10.65 18.4898 10.8C18.3798 11 18.3998 11.02 17.2598 11.77C16.7498 12.1 16.5198 12.66 16.7798 13.36C17.5098 14.97 18.7098 15.65 19.4898 16.11C19.7398 16.26 20.0798 16.45 20.1498 16.55C20.1498 16.56 20.0898 16.64 20.0398 16.7Z" fill="white"/>
</svg>
