<svg width="256" height="256" viewBox="0 0 256 256" fill="none" xmlns="http://www.w3.org/2000/svg">
<path d="M160 12C146.95 12.0076 134.081 15.0538 122.412 20.8974C110.744 26.741 100.596 35.2215 92.7735 45.667C84.9508 56.1125 79.6678 68.2361 77.3431 81.0774C75.0184 93.9187 75.7157 107.125 79.38 119.65L23.51 175.51C22.396 176.625 21.5126 177.949 20.9104 179.406C20.3081 180.863 19.9988 182.424 20 184V224C20 227.183 21.2643 230.235 23.5147 232.485C25.7652 234.736 28.8174 236 32 236H72C75.1826 236 78.2349 234.736 80.4853 232.485C82.7357 230.235 84 227.183 84 224V212H96C99.1826 212 102.235 210.736 104.485 208.485C106.736 206.235 108 203.183 108 200V188H120C121.576 188.001 123.137 187.692 124.594 187.09C126.051 186.487 127.375 185.604 128.49 184.49L136.35 176.62C147.901 180 160.043 180.858 171.955 179.136C183.866 177.414 195.269 173.153 205.39 166.641C215.511 160.129 224.115 151.518 230.618 141.391C237.122 131.264 241.373 119.858 243.085 107.945C244.796 96.0322 243.928 83.8906 240.538 72.3425C237.149 60.7944 231.317 50.1095 223.438 41.0114C215.56 31.9133 205.818 24.6145 194.873 19.6091C183.928 14.6038 172.035 12.0088 160 12ZM160 156C152.433 156.016 144.933 154.591 137.9 151.8C135.694 150.854 133.255 150.592 130.899 151.046C128.542 151.501 126.376 152.652 124.68 154.35L115 164H96C92.8174 164 89.7652 165.264 87.5147 167.515C85.2643 169.765 84 172.817 84 176V188H72C68.8174 188 65.7652 189.264 63.5147 191.515C61.2643 193.765 60 196.817 60 200V212H44V189L101.65 131.35C103.346 129.655 104.496 127.491 104.95 125.136C105.405 122.781 105.144 120.345 104.2 118.14C99.4647 106.213 98.6782 93.0817 101.956 80.6746C105.234 68.2675 112.403 57.2381 122.411 49.206C132.42 41.1739 144.74 36.5623 157.562 36.0482C170.385 35.5341 183.034 39.1446 193.653 46.3497C204.272 53.5548 212.302 63.9747 216.562 76.0796C220.823 88.1844 221.09 101.336 217.325 113.604C213.56 125.872 205.96 136.61 195.643 144.241C185.325 151.871 172.833 155.993 160 156ZM196 76C196 79.1645 195.062 82.2579 193.304 84.8891C191.545 87.5203 189.047 89.5711 186.123 90.7821C183.199 91.9931 179.982 92.3099 176.879 91.6926C173.775 91.0752 170.924 89.5513 168.686 87.3137C166.449 85.0761 164.925 82.2251 164.307 79.1214C163.69 76.0177 164.007 72.8007 165.218 69.8771C166.429 66.9534 168.48 64.4546 171.111 62.6965C173.742 60.9384 176.835 60 180 60C184.243 60 188.313 61.6857 191.314 64.6863C194.314 67.6869 196 71.7565 196 76Z" fill="#334155"/>
</svg>
