<svg width="24" height="24" viewBox="0 0 24 24" fill="none" xmlns="http://www.w3.org/2000/svg">
<path fill-rule="evenodd" clip-rule="evenodd" d="M7.30701 1.25C6.50601 1.25 5.95701 1.25 5.46701 1.383C4.95987 1.52218 4.48769 1.76647 4.08111 2.10001C3.67452 2.43354 3.34264 2.84886 3.10701 3.319C2.88001 3.771 2.77301 4.31 2.61601 5.096L1.99601 8.194C1.8862 8.73708 1.89681 9.29764 2.02708 9.83618C2.15736 10.3747 2.40412 10.8781 2.75001 11.311V14.056C2.75001 15.894 2.75001 17.35 2.90301 18.489C3.06101 19.661 3.39301 20.61 4.14101 21.359C4.88901 22.107 5.83801 22.439 7.01101 22.597C8.15001 22.75 9.60601 22.75 11.443 22.75H12.556C14.394 22.75 15.85 22.75 16.989 22.597C18.161 22.439 19.11 22.107 19.859 21.359C20.607 20.61 20.939 19.661 21.097 18.489C21.25 17.349 21.25 15.894 21.25 14.056V11.312C21.5959 10.8789 21.8425 10.3753 21.9726 9.83659C22.1027 9.29787 22.1131 8.73717 22.003 8.194L21.383 5.096C21.227 4.31 21.119 3.771 20.893 3.319C20.6573 2.84876 20.3252 2.43337 19.9185 2.09983C19.5117 1.76629 19.0393 1.52206 18.532 1.383C18.043 1.25 17.494 1.25 16.692 1.25H7.30701ZM18.268 12.75C18.777 12.7509 19.2809 12.6496 19.75 12.452V14C19.75 15.907 19.748 17.262 19.61 18.29C19.475 19.295 19.221 19.875 18.798 20.298C18.375 20.721 17.795 20.975 16.788 21.11C16.2775 21.1733 15.7642 21.2114 15.25 21.224V18.468C15.25 18.028 15.25 17.648 15.222 17.338C15.192 17.008 15.126 16.682 14.948 16.375C14.7507 16.0329 14.4669 15.7487 14.125 15.551C13.818 15.374 13.492 15.308 13.162 15.278C12.852 15.25 12.472 15.25 12.032 15.25H11.967C11.527 15.25 11.148 15.25 10.837 15.278C10.507 15.308 10.182 15.374 9.87501 15.551C9.53274 15.7485 9.24854 16.0327 9.051 16.375C8.874 16.682 8.80801 17.008 8.77801 17.337C8.75001 17.649 8.75001 18.028 8.75001 18.467V21.224C8.2351 21.2114 7.72114 21.1734 7.21001 21.11C6.20501 20.975 5.62501 20.721 5.20201 20.298C4.77801 19.875 4.52501 19.295 4.39001 18.289C4.25101 17.262 4.25001 15.907 4.25001 14V12.452C5.04911 12.7896 5.93956 12.8442 6.77392 12.6067C7.60828 12.3692 8.3365 11.8538 8.83801 11.146C9.20128 11.6437 9.67711 12.0485 10.2266 12.3272C10.7762 12.606 11.3838 12.7509 12 12.75C12.6162 12.7509 13.2239 12.606 13.7734 12.3272C14.3229 12.0485 14.7987 11.6437 15.162 11.146C15.514 11.642 15.9796 12.0465 16.52 12.3256C17.0604 12.6046 17.6598 12.7502 18.268 12.75ZM10.25 21.248C10.638 21.25 11.054 21.25 11.5 21.25H12.5C12.946 21.25 13.361 21.25 13.75 21.248V18.5C13.75 18.019 13.749 17.708 13.728 17.473C13.708 17.248 13.673 17.166 13.649 17.125C13.5833 17.0112 13.4888 16.9168 13.375 16.851C13.334 16.827 13.252 16.793 13.027 16.772C12.6851 16.751 12.3425 16.7436 12 16.75C11.519 16.75 11.208 16.75 10.973 16.772C10.747 16.792 10.666 16.827 10.625 16.851C10.5109 16.9166 10.416 17.0111 10.35 17.125C10.327 17.165 10.292 17.248 10.272 17.473C10.251 17.708 10.25 18.019 10.25 18.5V21.248ZM8.67001 2.75H7.41801C6.46401 2.75 6.13301 2.757 5.86501 2.83C5.56078 2.91344 5.2775 3.05992 5.03356 3.25994C4.78961 3.45995 4.59045 3.70903 4.44901 3.991C4.32401 4.24 4.25301 4.562 4.06601 5.498L3.46801 8.488C3.40427 8.79564 3.40396 9.11306 3.4671 9.42082C3.53024 9.72859 3.6555 10.0202 3.83521 10.2779C4.01492 10.5356 4.24531 10.754 4.51229 10.9196C4.77927 11.0852 5.07723 11.1946 5.38795 11.2411C5.69866 11.2877 6.0156 11.2703 6.31938 11.1901C6.62315 11.11 6.90739 10.9687 7.15469 10.7749C7.40199 10.5812 7.60717 10.339 7.75768 10.0632C7.90818 9.7874 8.00085 9.48382 8.03 9.171L8.09901 8.485L8.103 8.443L8.67201 2.75H8.67001ZM9.591 8.625L10.179 2.75H13.821L14.405 8.592C14.4377 8.92627 14.4004 9.26369 14.2955 9.58275C14.1905 9.9018 14.0202 10.1955 13.7955 10.445C13.5707 10.6946 13.2964 10.8946 12.99 11.0322C12.6836 11.1699 12.3519 11.2422 12.0161 11.2445C11.6802 11.2468 11.3476 11.179 11.0393 11.0456C10.7311 10.9122 10.4541 10.716 10.2259 10.4695C9.99771 10.223 9.82341 9.93173 9.7141 9.61415C9.60479 9.29657 9.56286 8.95969 9.591 8.625ZM18.135 2.83C17.867 2.757 17.536 2.75 16.582 2.75H15.328L15.971 9.17C16.0011 9.48192 16.0944 9.78445 16.2452 10.0592C16.396 10.3339 16.6011 10.575 16.848 10.7679C17.095 10.9608 17.3787 11.1014 17.6817 11.1811C17.9848 11.2609 18.3009 11.2781 18.6108 11.2318C18.9207 11.1854 19.218 11.0765 19.4844 10.9116C19.7509 10.7467 19.981 10.5293 20.1607 10.2726C20.3405 10.0159 20.4661 9.72526 20.5299 9.41846C20.5938 9.11166 20.5945 8.79508 20.532 8.488L19.935 5.498C19.747 4.562 19.676 4.24 19.552 3.991C19.4105 3.70892 19.2111 3.45978 18.967 3.25976C18.7229 3.05974 18.4394 2.91332 18.135 2.83Z" fill="#596474"/>
</svg>
