<svg width="256" height="256" viewBox="0 0 256 256" fill="none" xmlns="http://www.w3.org/2000/svg">
<path d="M128 80C118.506 80 109.226 82.8152 101.333 88.0895C93.4391 93.3638 87.2868 100.86 83.6538 109.631C80.0208 118.402 79.0702 128.053 80.9223 137.364C82.7744 146.675 87.346 155.228 94.0589 161.941C100.772 168.654 109.325 173.226 118.636 175.078C127.947 176.93 137.598 175.979 146.369 172.346C155.14 168.713 162.636 162.561 167.911 154.667C173.185 146.774 176 137.494 176 128C175.987 115.274 170.925 103.072 161.927 94.0735C152.928 85.0746 140.726 80.0132 128 80ZM128 160C121.671 160 115.484 158.123 110.222 154.607C104.959 151.091 100.858 146.093 98.4359 140.246C96.0138 134.399 95.3801 127.965 96.6149 121.757C97.8496 115.55 100.897 109.848 105.373 105.373C109.848 100.897 115.55 97.8496 121.757 96.6149C127.965 95.3801 134.399 96.0138 140.246 98.4359C146.093 100.858 151.091 104.959 154.607 110.222C158.123 115.484 160 121.671 160 128C160 136.487 156.629 144.626 150.627 150.627C144.626 156.629 136.487 160 128 160ZM176 24H80C65.1528 24.0159 50.9182 29.921 40.4196 40.4196C29.921 50.9182 24.0159 65.1528 24 80V176C24.0159 190.847 29.921 205.082 40.4196 215.58C50.9182 226.079 65.1528 231.984 80 232H176C190.847 231.984 205.082 226.079 215.58 215.58C226.079 205.082 231.984 190.847 232 176V80C231.984 65.1528 226.079 50.9182 215.58 40.4196C205.082 29.921 190.847 24.0159 176 24ZM216 176C216 186.609 211.786 196.783 204.284 204.284C196.783 211.786 186.609 216 176 216H80C69.3913 216 59.2172 211.786 51.7157 204.284C44.2143 196.783 40 186.609 40 176V80C40 69.3913 44.2143 59.2172 51.7157 51.7157C59.2172 44.2143 69.3913 40 80 40H176C186.609 40 196.783 44.2143 204.284 51.7157C211.786 59.2172 216 69.3913 216 80V176ZM192 76C192 78.3734 191.296 80.6934 189.978 82.6668C188.659 84.6402 186.785 86.1783 184.592 87.0866C182.399 87.9948 179.987 88.2324 177.659 87.7694C175.331 87.3064 173.193 86.1635 171.515 84.4853C169.836 82.8071 168.694 80.6689 168.231 78.3411C167.768 76.0133 168.005 73.6005 168.913 71.4078C169.822 69.2151 171.36 67.3409 173.333 66.0224C175.307 64.7038 177.627 64 180 64C183.183 64 186.235 65.2643 188.485 67.5147C190.736 69.7652 192 72.8174 192 76Z" fill="#334155"/>
</svg>
