<svg width="21" height="21" viewBox="0 0 21 21" fill="none" xmlns="http://www.w3.org/2000/svg">
<path d="M6.5 10.5H11.5M6.5 12.5H13.5M6.5 14.5H9.5M16.5 15.5V8.5L11.5 3.5H6.5C5.96957 3.5 5.46086 3.71071 5.08579 4.08579C4.71071 4.46086 4.5 4.96957 4.5 5.5V15.5C4.5 16.0304 4.71071 16.5391 5.08579 16.9142C5.46086 17.2893 5.96957 17.5 6.5 17.5H14.5C15.0304 17.5 15.5391 17.2893 15.9142 16.9142C16.2893 16.5391 16.5 16.0304 16.5 15.5Z" stroke="black" stroke-linecap="round" stroke-linejoin="round"/>
<path d="M11.5 3.5V6.5C11.5 7.03043 11.7107 7.53914 12.0858 7.91421C12.4609 8.28929 12.9696 8.5 13.5 8.5H16.5" stroke="black" stroke-linecap="round" stroke-linejoin="round"/>
</svg>
